<?xml version="1.0" standalone="no"?>
<!DOCTYPE svg PUBLIC "-//W3C//DTD SVG 20010904//EN"
 "http://www.w3.org/TR/2001/REC-SVG-20010904/DTD/svg10.dtd">
<svg version="1.0" xmlns="http://www.w3.org/2000/svg"
 width="512.000000pt" height="512.000000pt" viewBox="0 0 512.000000 512.000000"
 preserveAspectRatio="xMidYMid meet">

<g transform="translate(0.000000,512.000000) scale(0.100000,-0.100000)"
fill="#14b8a6" stroke="none">
<path d="M2500 4778 c-177 -28 -315 -181 -327 -366 -4 -61 -1 -89 15 -137 l21
-60 -22 -23 c-12 -13 -345 -326 -740 -695 l-717 -672 -135 -7 c-210 -11 -315
-51 -429 -164 -69 -68 -106 -124 -139 -212 -22 -56 -22 -64 -25 -834 -3 -857
-4 -846 59 -971 42 -83 155 -194 240 -236 131 -64 -1 -61 2264 -61 2262 0
2135 -3 2261 61 120 60 211 163 262 295 l27 69 3 770 c2 533 0 790 -8 835 -33
190 -187 365 -371 421 -44 13 -112 22 -202 27 l-135 7 -740 692 -740 693 19
61 c88 282 -148 553 -441 507z m-150 -718 c122 -87 339 -84 442 7 9 8 22 13
27 12 6 -2 312 -285 679 -629 l668 -625 -798 -3 c-439 -1 -1159 -1 -1600 0
l-802 3 669 627 c369 345 674 628 678 628 5 0 22 -9 37 -20z m-840 -2061 c62
-13 126 -61 153 -113 40 -76 31 -222 -15 -281 -12 -15 -38 -39 -58 -54 l-37
-27 39 -69 c94 -164 109 -201 99 -229 -21 -54 -121 -87 -152 -50 -8 10 -48 83
-89 163 l-75 146 -43 3 -42 3 0 -140 c0 -167 -7 -181 -87 -181 -87 0 -83 -21
-83 421 0 339 2 390 16 403 13 13 43 16 169 16 85 0 177 -5 205 -11z m914 -11
c9 -12 16 -38 16 -58 0 -20 -7 -46 -16 -58 -15 -21 -21 -22 -180 -22 l-165 0
3 -97 3 -98 95 -3 c82 -2 97 -5 113 -23 9 -12 17 -31 17 -44 0 -13 -8 -32 -17
-44 -16 -18 -31 -21 -113 -23 l-95 -3 -3 -97 -3 -98 162 0 c187 0 199 -4 199
-73 0 -76 -2 -77 -264 -77 -193 0 -235 3 -254 16 l-22 15 0 382 c0 210 4 387
8 393 20 29 52 33 274 34 223 0 227 0 242 -22z m392 -10 c12 -10 68 -107 125
-214 l104 -195 3 198 c3 215 5 225 62 236 33 7 90 -7 102 -25 4 -7 8 -185 8
-395 l0 -382 -22 -15 c-28 -20 -107 -21 -135 -1 -11 8 -70 105 -130 216 l-108
200 -5 -201 c-6 -231 -5 -230 -92 -230 -39 0 -54 5 -73 25 l-25 24 0 360 c0
206 4 371 10 385 18 47 131 56 176 14z m1179 12 c11 -12 18 -35 18 -60 0 -66
-21 -80 -120 -80 l-83 0 0 -320 c0 -307 -1 -321 -20 -340 -38 -38 -152 -21
-164 24 -3 11 -6 159 -6 329 l0 307 -84 0 c-89 0 -108 8 -121 51 -10 31 3 87
23 98 10 6 123 11 278 11 248 0 262 -1 279 -20z"/>
<path d="M1290 1740 l0 -112 86 3 c79 4 87 6 110 32 18 21 24 40 24 77 0 37
-6 56 -24 77 -23 26 -31 28 -110 32 l-86 3 0 -112z"/>
</g>
</svg>
